# xmcd CD database file
#
# Track frame offsets:
#	150
#	19889
#	36277
#	47328
#	60312
#	74667
#	88575
#	103548
#	118331
#	133401
#	151866
#	162140
#	174024
#	192238
#	203391
#	226095
#	238148
#	253290
#	264792
#	278978
#
# Disc length: 3876 seconds
#
# Revision: 1
# Processed by: cddbd v1.5.1PL0 Copyright (c) Steve Scherf et al.
# Submitted via: CDex 1.50beta10
#
DISCID=0d0f2214
DTITLE=Melinda Schneider - Happy Tears
DYEAR=2003
DGENRE=Country
TTITLE0=The Story Of My Life
TTITLE1=Damn Love
TTITLE2=Living It Down
TTITLE3=He Still Calls Her Angel
TTITLE4=Superwoman
TTITLE5=Can You Hear Me Down The Hillside
TTITLE6=When The Last Child Leaves Home
TTITLE7=Gods Time
TTITLE8=Small Stuff
TTITLE9=I Love You, You're Perfect, Now Change
TTITLE10=She's Still Got It
TTITLE11=No More Tears To Cry
TTITLE12=Wearing White
TTITLE13=Hallelujah, I'm Ready
TTITLE14=Ther'es A Bridle Hanging On The Wall
TTITLE15=My Dog Don't Like You
TTITLE16=When The Last Child Leaves Home (Duet with Billy Thorpe)
TTITLE17=I'm My Own Grandpa
TTITLE18=Love Lifted Me
TTITLE19=Reach Out
EXTD=YEAR: 2003
EXTT0=
EXTT1=
EXTT2=
EXTT3=
EXTT4=
EXTT5=
EXTT6=
EXTT7=
EXTT8=
EXTT9=
EXTT10=
EXTT11=
EXTT12=
EXTT13=
EXTT14=
EXTT15=
EXTT16=
EXTT17=
EXTT18=
EXTT19=
PLAYORDER=
